<?xml version="1.0" encoding="utf-8"?>
<!-- Generator: Adobe Illustrator 23.0.3, SVG Export Plug-In . SVG Version: 6.00 Build 0)  -->
<svg version="1.1" id="Layer_1" xmlns="http://www.w3.org/2000/svg" xmlns:xlink="http://www.w3.org/1999/xlink" x="0px" y="0px"
	 viewBox="0 0 100 100" enable-background="new 0 0 100 100" xml:space="preserve">
<path d="M90.99,63.34v-5.8c0-4.3-3.24-7.86-7.41-8.38c4.54-2.76,7.58-7.73,7.58-13.41c0-3.1-0.91-5.98-2.47-8.41
	c-0.02-0.03-0.03-0.06-0.05-0.1c-0.01-0.02-0.02-0.03-0.03-0.04c-2.81-4.31-7.67-7.16-13.18-7.16c-7.99,0-14.59,5.98-15.59,13.69
	L39.82,14.32c-0.58-0.56-1.51-0.56-2.09,0L10.47,40.77h-0.13c-0.83,0-1.5,0.67-1.5,1.5v32.36c0,0.83,0.67,1.5,1.5,1.5h9.51
	c0.02,0,0.03,0,0.05,0s0.03,0,0.05,0h4.4c0.02,0,0.03,0,0.05,0s0.03,0,0.05,0h28.67c0.01,0,0.02,0,0.03,0c0.01,0,0.02,0,0.03,0h4.43
	c0.01,0,0.02,0,0.03,0c0.83,0,1.5-0.67,1.5-1.5V65.1l0.58-0.27v11.14c0,0.83,0.67,1.5,1.5,1.5h28.26c0.83,0,1.5-0.67,1.5-1.5v-6.1
	c0,0,0,0,0-0.01V63.34C90.99,63.35,90.99,63.35,90.99,63.34z M76.42,69.68H74.3l0.82-8.41h0.21c0.01,0,0.02,0,0.03,0s0.02,0,0.03,0
	h0.21l0.13,1.37c0.02,0.15,0.06,0.29,0.12,0.43c-0.24,0.44-0.44,0.91-0.53,1.42c-0.2,1.21,0.15,2.42,0.93,3.39L76.42,69.68z
	 M75.38,58.27h-0.03c-0.58-0.01-1.05-0.48-1.05-1.05c0-0.58,0.48-1.06,1.06-1.06s1.06,0.47,1.06,1.06
	C76.42,57.8,75.95,58.26,75.38,58.27z M78.74,66.16c-0.21-0.2-0.55-0.63-0.46-1.18c0.1-0.61,0.57-0.97,0.84-1.13
	c0.54-0.33,1.25-0.45,1.94-0.33l6.93,1.16v3.49l-7.91-1.33C79.55,66.74,79.09,66.51,78.74,66.16z M59.82,56.34l-0.67,0.33V43.82h2.8
	c0.42,0.7,0.88,1.37,1.4,1.99c0.03,0.04,0.06,0.08,0.09,0.11c0.01,0.01,0.02,0.01,0.04,0.02c0.67,0.79,1.42,1.5,2.24,2.14v1.37
	C62.6,50.39,60.28,53.04,59.82,56.34z M44.93,57.42l-1.51-0.86c-0.38-0.21-0.58-0.63-0.51-1.04c0.07-0.4,0.23-0.78,0.44-1.1
	c0.01-0.01,0.02-0.02,0.03-0.04c0.22-0.32,0.5-0.59,0.83-0.77c0.37-0.21,0.79-0.3,1.21-0.3c0.89,0,1.81,0.44,2.4,1.21
	c-0.19,0.47-0.42,0.93-0.68,1.37c-0.27,0.46-0.59,0.91-0.93,1.32C45.9,57.58,45.35,57.67,44.93,57.42z M41.29,58.71
	c-0.46-0.11-0.95-0.2-1.46-0.26v-3.67c0.06,0.01,0.11,0.01,0.17,0.02c-0.02,0.07-0.04,0.14-0.05,0.21
	C39.7,56.4,40.23,57.8,41.29,58.71z M36.83,58.18c-2.18-0.35-3.35-1.25-3.35-1.66c0-0.4,1.16-1.29,3.35-1.65V58.18z M39.83,61.49
	c2.11,0.35,3.36,1.22,3.36,1.66s-1.24,1.31-3.36,1.66V61.49z M50.78,53.83c-0.03-0.17-0.08-0.33-0.17-0.49
	c-1.63-2.79-5.16-3.84-7.86-2.34c-0.47,0.26-0.9,0.6-1.27,0.98c-0.53-0.11-1.08-0.18-1.65-0.23v-2.24c0-0.83-0.67-1.5-1.5-1.5
	s-1.5,0.67-1.5,1.5v2.3c-3.75,0.46-6.35,2.31-6.35,4.7c0,2.4,2.63,4.26,6.35,4.7v3.68c-2.52-0.25-4.01-1.27-4.01-1.75
	c0-0.83-0.67-1.5-1.5-1.5s-1.5,0.67-1.5,1.5c0,2.51,2.94,4.45,7.01,4.76v2.24c0,0.83,0.67,1.5,1.5,1.5s1.5-0.67,1.5-1.5v-2.3
	c3.73-0.46,6.36-2.33,6.36-4.7c0-0.57-0.16-1.11-0.44-1.61l5.9,4.93c0,0,0.01,0,0.01,0.01v6.65H25.9v-29.3h25.75v10.81L50.78,53.83z
	 M22.9,43.82v29.3h-1.5v-29.3H22.9z M54.65,43.82h1.5v14.35l-0.3,0.15c-0.06,0.03-0.11,0-0.11-0.01l-1.09-0.98V43.82z M75.42,48.46
	c-3.91,0-7.41-1.77-9.74-4.54c-1.28-1.92-2.26-3.99-2.77-5.86c-0.14-0.75-0.22-1.52-0.22-2.31c0-0.34,0.02-0.68,0.05-1.02
	c0.03-0.08,0.07-0.14,0.1-0.19c0.29-0.38,1.61-0.2,3.14,0.01c2.59,0.35,6.13,0.83,10.9-0.17c4.59-0.96,7.75-2.75,9.98-4.18
	c0.82,1.68,1.3,3.56,1.3,5.55C88.16,42.76,82.45,48.46,75.42,48.46z M75.42,23.03c3.95,0,7.49,1.8,9.82,4.63
	c-2.04,1.3-4.9,2.92-8.98,3.77c-4.26,0.9-7.51,0.46-9.88,0.14c-1.04-0.14-2.01-0.26-2.89-0.23C65.3,26.5,69.96,23.03,75.42,23.03z
	 M38.78,17.48l21.02,20.4c0.05,0.23,0.08,0.45,0.14,0.69c0.01,0.04,0.02,0.07,0.02,0.11l0,0c0,0.01,0.01,0.03,0.01,0.05
	c0.14,0.7,0.32,1.38,0.55,2.05H14.78L38.78,17.48z M11.84,43.82h6.56v29.3h-6.56V43.82z M56.15,73.12h-1.5v-6.01
	c0.19-0.05,0.37-0.1,0.55-0.19l0.95-0.44V73.12z M62.73,74.48V62.49c0-0.01,0-0.01,0-0.02c0-0.06-0.01-0.12-0.02-0.18
	c-0.01-0.04-0.01-0.08-0.02-0.12c-0.01-0.04-0.03-0.09-0.04-0.13c-0.02-0.05-0.03-0.11-0.05-0.15c0-0.01,0-0.01-0.01-0.02
	c-0.02-0.03-0.04-0.06-0.05-0.09c-0.03-0.05-0.05-0.1-0.08-0.14c-0.03-0.04-0.06-0.08-0.09-0.11c-0.03-0.04-0.06-0.07-0.1-0.11
	c-0.04-0.04-0.08-0.07-0.12-0.1c-0.03-0.03-0.07-0.06-0.11-0.08c-0.05-0.03-0.09-0.05-0.14-0.08c-0.04-0.02-0.07-0.04-0.11-0.06
	c-0.05-0.02-0.11-0.04-0.17-0.05c-0.04-0.01-0.07-0.02-0.11-0.03C61.44,61.01,61.37,61,61.3,61c-0.02,0-0.05-0.01-0.07-0.01
	c-0.01,0-0.01,0-0.02,0c-0.07,0-0.13,0.01-0.19,0.02c-0.04,0.01-0.07,0.01-0.11,0.01c-0.04,0.01-0.08,0.03-0.13,0.04
	c-0.06,0.02-0.11,0.03-0.17,0.06c-0.01,0-0.01,0-0.02,0.01l-6.66,3.07c-0.12,0.06-0.29,0.04-0.38-0.04l-5.51-4.6
	c0.15-0.13,0.31-0.26,0.44-0.42c0.45-0.54,0.86-1.12,1.21-1.72c0.07-0.11,0.12-0.24,0.19-0.35l3.85,3.48
	c0.59,0.52,1.32,0.78,2.06,0.78c0.47,0,0.95-0.11,1.39-0.33l4.71-2.35c0.01,0,0.02-0.01,0.03-0.02c0.08-0.04,0.15-0.08,0.21-0.14
	c0.01-0.01,0.02-0.02,0.03-0.03c0.07-0.05,0.13-0.11,0.18-0.18c0.01-0.01,0.02-0.02,0.03-0.03c0.05-0.06,0.1-0.13,0.14-0.2
	c0.01-0.01,0.01-0.02,0.02-0.03c0.04-0.07,0.07-0.14,0.1-0.22c0.01-0.02,0.01-0.03,0.02-0.05c0.02-0.07,0.04-0.14,0.05-0.22
	c0-0.03,0.01-0.05,0.01-0.08c0-0.04,0.01-0.07,0.01-0.11c0.09-2.95,2.48-5.26,5.45-5.26h14.34c3.01,0,5.46,2.44,5.46,5.45v4.09
	l-6.43-1.07c-1.02-0.18-2.05-0.08-2.99,0.25l-0.01-0.07c-0.03-0.28-0.11-0.55-0.21-0.8c0.66-0.72,1.08-1.67,1.08-2.73
	c0-2.24-1.82-4.06-4.06-4.06s-4.06,1.82-4.06,4.06c0,1.05,0.41,2,1.07,2.73c-0.11,0.25-0.19,0.52-0.21,0.8l-0.87,8.92
	c-0.08,0.77,0.16,1.54,0.68,2.11c0.52,0.58,1.26,0.91,2.04,0.91h2.71c0.77,0,1.51-0.33,2.03-0.9c0.5-0.55,0.75-1.29,0.7-2.03
	c0.05,0.01,0.09,0.03,0.14,0.03l8.41,1.41v3.28H62.73z"/>
<path d="M38.78,26.32c-3.99,0-7.24,3.07-7.24,6.83c0,3.77,3.25,6.83,7.24,6.83s7.24-3.07,7.24-6.83
	C46.01,29.38,42.77,26.32,38.78,26.32z M38.78,36.98c-2.34,0-4.24-1.72-4.24-3.83s1.9-3.83,4.24-3.83s4.24,1.72,4.24,3.83
	S41.11,36.98,38.78,36.98z"/>
</svg>
