<?xml version="1.0" encoding="UTF-8" standalone="no"?> <svg id="Layer_1" data-name="Layer 1" xmlns="http://www.w3.org/2000/svg" viewBox="0 0 64 64"><title>company-bank-corperation-organization-enterprise</title><rect x="31" y="1" width="2" height="3"/><rect x="15" y="17" width="3" height="2"/><rect x="46" y="17" width="3" height="2"/><rect x="41.46012" y="6.04015" width="2.99968" height="1.99979" transform="translate(7.60462 32.43926) rotate(-45)"/><rect x="20.04015" y="5.5402" width="1.99979" height="2.99968" transform="translate(1.18443 16.93953) rotate(-45)"/><path d="M33,23H31a2.0026,2.0026,0,0,1-2-2H27a4.004,4.004,0,0,0,4,4v1h2V25a4,4,0,0,0,0-8H31a2,2,0,0,1,0-4h2a2.0026,2.0026,0,0,1,2,2h2a4.004,4.004,0,0,0-4-4V10H31v1a4,4,0,0,0,0,8h2a2,2,0,0,1,0,4Z"/><path d="M37,33v4a.99943.99943,0,0,0,1,1h4a.99943.99943,0,0,0,1-1V33a.99943.99943,0,0,0-1-1H38A.99943.99943,0,0,0,37,33Zm2,1h2v2H39Z"/><path d="M34,32H30a.99943.99943,0,0,0-1,1V47a.99943.99943,0,0,0,1,1h4a.99943.99943,0,0,0,1-1V33A.99943.99943,0,0,0,34,32ZM33,46H31V34h2Z"/><path d="M26,32H22a.99943.99943,0,0,0-1,1v4a.99943.99943,0,0,0,1,1h4a.99943.99943,0,0,0,1-1V33A.99943.99943,0,0,0,26,32Zm-1,4H23V34h2Z"/><path d="M10,57h4a.99943.99943,0,0,0,1-1V52a.99943.99943,0,0,0-1-1H10a.99943.99943,0,0,0-1,1v4A.99943.99943,0,0,0,10,57Zm1-4h2v2H11Z"/><path d="M42,41H38a.99943.99943,0,0,0-1,1v4a.99943.99943,0,0,0,1,1h4a.99943.99943,0,0,0,1-1V42A.99943.99943,0,0,0,42,41Zm-1,4H39V43h2Z"/><path d="M50,57h4a.99943.99943,0,0,0,1-1V52a.99943.99943,0,0,0-1-1H50a.99943.99943,0,0,0-1,1v4A.99943.99943,0,0,0,50,57Zm1-4h2v2H51Z"/><path d="M26,41H22a.99943.99943,0,0,0-1,1v4a.99943.99943,0,0,0,1,1h4a.99943.99943,0,0,0,1-1V42A.99943.99943,0,0,0,26,41Zm-1,4H23V43h2Z"/><path d="M61.832,47.44531l-4-6A1.00028,1.00028,0,0,0,57,41H53V38.47992a4.93733,4.93733,0,0,0,5.707-.94476.99964.99964,0,0,0,0-1.41407l-2.20721-2.20684L57.707,32.707,56.293,31.293l-1.20734,1.20734L53.0498,30.46484a.99964.99964,0,0,0-1.41406,0A5.0077,5.0077,0,0,0,51,36.75635V41H47V25a.99943.99943,0,0,0-1-1H42.37653a12,12,0,1,0-20.75306,0H18a.99943.99943,0,0,0-1,1V41H13.17188V36.75458a4.997,4.997,0,0,0-.63672-6.28974.99965.99965,0,0,0-1.41407,0L9.08594,32.5l-1.207-1.207L6.46484,32.707l1.207,1.207-2.207,2.207a.99965.99965,0,0,0,0,1.41407,4.93619,4.93619,0,0,0,5.707.94873V41H7a1.00028,1.00028,0,0,0-.832.44531l-4,6A.99992.99992,0,0,0,3,49H5V60a.99943.99943,0,0,0,1,1H58a.99943.99943,0,0,0,1-1V49h2a.99992.99992,0,0,0,.832-1.55469ZM11.12109,36.12109a3.06229,3.06229,0,0,1-3.415.58692l4.002-4.002a3.00388,3.00388,0,0,1-.58692,3.415ZM17,59H7V49H17Zm0-12H4.86816l2.667-4H17ZM32,8A10,10,0,1,1,22,18,10.01177,10.01177,0,0,1,32,8ZM31,59H28V54a2.27725,2.27725,0,0,1,2.27441-2.27441H31Zm5,0H33V51.72559h.72559A2.27725,2.27725,0,0,1,36,54Zm9,0H38V54a4.27986,4.27986,0,0,0-4.27441-4.27441H30.27441A4.27986,4.27986,0,0,0,26,54v5H19V26h4.08093a11.94373,11.94373,0,0,0,17.83814,0H45Zm7.46387-26.293,4.002,4.001a3.06612,3.06612,0,0,1-3.416-.58692A3.00473,3.00473,0,0,1,52.46387,32.707ZM57,59H47V49H57ZM47,47V43h9.46484l2.667,4Z"/></svg>