<?xml version="1.0" encoding="UTF-8" standalone="no"?> <svg id="Layer_1" data-name="Layer 1" xmlns="http://www.w3.org/2000/svg" viewBox="0 0 64 64"><path d="M52.75781,44.5918a1.30869,1.30869,0,0,1,1.22949-.97168h1.5586a1,1,0,0,0,.98144-.8086A25.196,25.196,0,0,0,57,38a.99974.99974,0,0,0-1-1H46V24a.99979.99979,0,0,0-.72559-.96143L39,21.24591V16a.99974.99974,0,0,0-1-1H26a.99974.99974,0,0,0-1,1v5.24591l-6.27441,1.79266A.99979.99979,0,0,0,18,24V37H8a.99974.99974,0,0,0-1,1,25.196,25.196,0,0,0,.47266,4.81152,1,1,0,0,0,.98144.8086h1.5586a1.30869,1.30869,0,0,1,1.22949.97168,21.694,21.694,0,0,0,1.4209,3.41943,1.31112,1.31112,0,0,1-.18262,1.56006l-1.1084,1.1084A1,1,0,0,0,11.25,51.94531a25.002,25.002,0,0,0,6.80469,6.80518,1.00027,1.00027,0,0,0,1.26562-.12256l1.1084-1.1084a1.32413,1.32413,0,0,1,1.55859-.1831,21.67441,21.67441,0,0,0,3.42188,1.42138,1.30822,1.30822,0,0,1,.9707,1.229v1.55859a1,1,0,0,0,.8086.98145,24.70155,24.70155,0,0,0,9.623,0,1,1,0,0,0,.8086-.98145V59.98682a1.30822,1.30822,0,0,1,.9707-1.229,21.62555,21.62555,0,0,0,3.4209-1.42138,1.32488,1.32488,0,0,1,1.55957.1831l1.1084,1.1084a1.00053,1.00053,0,0,0,1.26562.12256A25.002,25.002,0,0,0,52.75,51.94531a1,1,0,0,0-.12207-1.26562l-1.1084-1.1084a1.31049,1.31049,0,0,1-.18262-1.55957A21.7185,21.7185,0,0,0,52.75781,44.5918ZM39,23.32562l5,1.42877V37H39ZM27,17H37V37H35V33a.99974.99974,0,0,0-1-1H30a.99974.99974,0,0,0-1,1v4H27Zm6,17v3H31V34ZM20,24.75439l5-1.42877V37H20ZM45.77258,39a13.80768,13.80768,0,0,1-27.54516,0Zm5.079,4.98535a19.69906,19.69906,0,0,1-1.29,3.105,3.3184,3.3184,0,0,0,.54395,3.895l.51562.51563A22.98572,22.98572,0,0,1,45.501,56.62109l-.51563-.51562a3.31268,3.31268,0,0,0-3.89648-.54346,19.57489,19.57489,0,0,1-3.10352,1.28955,3.31513,3.31513,0,0,0-2.36523,3.13526v.7207a22.62458,22.62458,0,0,1-7.24024,0v-.7207a3.31513,3.31513,0,0,0-2.36523-3.13526A19.62305,19.62305,0,0,1,22.91016,55.562a3.3136,3.3136,0,0,0-3.89551.54346l-.51563.51562A22.98572,22.98572,0,0,1,13.37891,51.501l.51562-.51563a3.319,3.319,0,0,0,.544-3.89551,19.67456,19.67456,0,0,1-1.29-3.10449,3.31768,3.31768,0,0,0-3.13574-2.36523H9.292A23.53452,23.53452,0,0,1,9.02246,39h7.205a15.80295,15.80295,0,0,0,31.54516,0h7.205a23.53452,23.53452,0,0,1-.26953,2.62012H53.9873A3.31768,3.31768,0,0,0,50.85156,43.98535Z"/><path d="M33,14V6.81573a3.00011,3.00011,0,1,0-2-.00006V14ZM32,3a1,1,0,1,1-1,1A1.001,1.001,0,0,1,32,3Z"/><path d="M42,14v7h2V14.41406l1.71466-1.71466A2.96548,2.96548,0,0,0,47,13a3,3,0,1,0-3-3,2.96548,2.96548,0,0,0,.3006,1.28534L42.293,13.293A1.00012,1.00012,0,0,0,42,14Zm5-5a1,1,0,1,1-1,1A1.001,1.001,0,0,1,47,9Z"/><path d="M17,7a3,3,0,0,0,0,6,2.96548,2.96548,0,0,0,1.28534-.3006L20,14.41406V21h2V14a1.00012,1.00012,0,0,0-.293-.707L19.6994,11.28534A2.96548,2.96548,0,0,0,20,10,3.00328,3.00328,0,0,0,17,7Zm0,4a1,1,0,1,1,1-1A1.001,1.001,0,0,1,17,11Z"/><path d="M7,18a3,3,0,1,0,2.07971,5.15393L12,24.61719V32h2V24a1.00054,1.00054,0,0,0-.55176-.894L9.96362,21.35962A2.94724,2.94724,0,0,0,10,21,3.00328,3.00328,0,0,0,7,18Zm0,4a1,1,0,1,1,1-1A1.001,1.001,0,0,1,7,22Z"/><rect x="12" y="34" width="2" height="2"/><path d="M60,21a3,3,0,0,0-6,0,2.94724,2.94724,0,0,0,.03638.35962L50.55176,23.106A1.00054,1.00054,0,0,0,50,24v8h2V24.61719l2.92029-1.46326A2.994,2.994,0,0,0,60,21Zm-4,0a1,1,0,1,1,1,1A1.001,1.001,0,0,1,56,21Z"/><rect x="50" y="34" width="2" height="2"/><rect x="29" y="20" width="6" height="2"/><rect x="29" y="24" width="6" height="2"/><rect x="29" y="28" width="6" height="2"/><rect x="40" y="26" width="3" height="2"/><rect x="40" y="30" width="3" height="2"/><rect x="21" y="26" width="3" height="2"/><rect x="21" y="30" width="3" height="2"/></svg>