<?xml version="1.0" encoding="utf-8"?>
<!-- Generator: Adobe Illustrator 23.0.3, SVG Export Plug-In . SVG Version: 6.00 Build 0)  -->
<svg version="1.1" id="Layer_1" xmlns="http://www.w3.org/2000/svg" xmlns:xlink="http://www.w3.org/1999/xlink" x="0px" y="0px"
	 viewBox="0 0 100 100" enable-background="new 0 0 100 100" xml:space="preserve">
<path d="M7.29,70.18h25.38l5.78,4.83c0.75,0.63,1.7,0.96,2.66,0.96c0.6,0,1.21-0.13,1.77-0.39l7.44-3.44v13c0,0,0,0.01,0,0.01
	c0,0.83,0.67,1.5,1.5,1.5h40.66c0.83,0,1.5-0.67,1.5-1.5V75.8c0.01-0.08,0.02-0.16,0.02-0.24s-0.01-0.16-0.02-0.24V68.5
	c0.01-0.08,0.02-0.16,0.02-0.24s-0.01-0.16-0.02-0.24v-5.37c0-6.35-5.17-11.52-11.52-11.52h-0.84c7.45-3.52,12.61-11.11,12.61-19.88
	c0-12.12-9.86-21.98-21.98-21.98c-8.42,0-15.75,4.76-19.44,11.74H7.29c-0.83,0-1.5,0.67-1.5,1.5v46.17
	C5.79,69.51,6.46,70.18,7.29,70.18z M27.19,61.15l1.28-4.93c0.07-0.26,0.06-0.53-0.01-0.78l4.49,3.42c-0.26,0.6-0.54,1.2-0.88,1.77
	c-0.67,1.14-1.5,2.19-2.45,3.12c-0.01-0.01-0.02-0.02-0.03-0.02l-1.7-1C27.32,62.4,27.04,61.76,27.19,61.15z M90.97,74.06H78.49
	c-0.51,0-1-0.11-1.42-0.32c-0.72-0.38-1.15-0.99-1.15-1.63c0-0.77,0.5-1.31,0.81-1.58c0.57-0.49,1.38-0.77,2.23-0.77h12.01V74.06z
	 M72.14,64.37c-1.2,0-2.18-0.98-2.18-2.18s0.98-2.18,2.18-2.18s2.18,0.98,2.18,2.18S73.35,64.37,72.14,64.37z M71.18,67.63
	c0.01-0.15,0.13-0.25,0.28-0.25h1.36c0.15,0,0.27,0.11,0.28,0.25l0.23,2.31c0.01,0.07,0.02,0.13,0.04,0.19
	c-0.29,0.63-0.44,1.3-0.44,1.98c0,1.19,0.47,2.29,1.29,3.17c-0.19,0.28-0.3,0.63-0.26,0.99l0.42,4.24c0.01,0.1-0.03,0.17-0.07,0.22
	s-0.11,0.09-0.21,0.09H70.2c-0.1,0-0.17-0.05-0.21-0.09c-0.04-0.04-0.08-0.11-0.07-0.22L71.18,67.63z M75.06,83.65
	c0.55-0.17,1.06-0.47,1.45-0.91c0.62-0.68,0.93-1.6,0.83-2.52l-0.33-3.33C77.5,77,78,77.06,78.49,77.06h12.48v6.59H75.06z
	 M90.97,62.65v4.11H78.96c-1.01,0-1.99,0.25-2.87,0.67l-0.01-0.1c-0.05-0.49-0.21-0.94-0.45-1.34c1.03-0.95,1.69-2.29,1.69-3.8
	c0-2.86-2.33-5.18-5.18-5.18s-5.18,2.33-5.18,5.18c0,1.51,0.66,2.85,1.69,3.8c-0.24,0.4-0.4,0.85-0.45,1.34l-1.26,12.88
	c-0.09,0.92,0.21,1.84,0.83,2.52c0.39,0.44,0.9,0.74,1.45,0.91H53.31V69.79c0-0.01,0-0.02,0-0.02c0-0.06-0.01-0.11-0.02-0.17
	c-0.01-0.04-0.01-0.09-0.02-0.13c-0.01-0.04-0.03-0.08-0.04-0.12c-0.02-0.06-0.03-0.11-0.06-0.17c0-0.01,0-0.01-0.01-0.02
	c-0.01-0.03-0.03-0.06-0.05-0.09c-0.03-0.05-0.05-0.1-0.09-0.15c-0.03-0.04-0.06-0.07-0.09-0.11c-0.03-0.04-0.06-0.07-0.1-0.11
	c-0.04-0.03-0.08-0.06-0.11-0.09c-0.04-0.03-0.07-0.06-0.11-0.09c-0.04-0.03-0.08-0.05-0.13-0.07c-0.04-0.02-0.09-0.05-0.13-0.06
	c-0.05-0.02-0.09-0.03-0.14-0.04c-0.05-0.01-0.09-0.03-0.14-0.04c-0.06-0.01-0.11-0.01-0.17-0.02c-0.03,0-0.07-0.01-0.1-0.01
	c-0.01,0-0.01,0-0.02,0c-0.06,0-0.11,0.01-0.17,0.02c-0.04,0.01-0.09,0.01-0.13,0.02c-0.04,0.01-0.08,0.03-0.12,0.04
	c-0.06,0.02-0.11,0.03-0.17,0.06c-0.01,0-0.01,0-0.02,0.01l-9.57,4.43c-0.4,0.19-0.92,0.13-1.24-0.14l-8.41-7.04
	c1.05-1.06,1.96-2.24,2.71-3.52c0.24-0.4,0.44-0.81,0.65-1.23l6.16,5.57c0.72,0.63,1.62,0.96,2.53,0.96c0.58,0,1.17-0.13,1.71-0.41
	l6.64-3.32c0.23-0.08,0.43-0.23,0.59-0.42c0.01-0.02,0.03-0.03,0.04-0.05c0.04-0.05,0.08-0.1,0.11-0.16
	c0.02-0.04,0.04-0.07,0.06-0.11c0.02-0.04,0.04-0.09,0.06-0.13c0.02-0.05,0.04-0.1,0.05-0.15c0.01-0.04,0.02-0.08,0.03-0.12
	c0.01-0.06,0.02-0.11,0.02-0.17c0-0.02,0.01-0.04,0.01-0.07c0.1-3.17,1.89-5.86,4.5-7.24c0.01-0.01,0.02-0.01,0.04-0.02
	c1.19-0.62,2.54-0.97,3.98-0.97h20.62C87.15,54.13,90.97,57.95,90.97,62.65z M61.83,51.13c-1.09,0-2.15,0.16-3.15,0.44v-3.03
	c1.29,1.01,2.69,1.88,4.18,2.59H61.83z M72.23,50.23c-5.84,0-11.07-2.66-14.56-6.82c-1.89-2.84-3.33-5.9-4.09-8.66
	c-0.21-1.14-0.34-2.3-0.34-3.5c0-0.54,0.04-1.07,0.08-1.6c0.08-0.21,0.17-0.4,0.28-0.55c0.62-0.81,2.19-0.64,5.14-0.24
	c3.67,0.5,8.71,1.18,15.46-0.24c6.93-1.45,11.57-4.25,14.76-6.33c1.44,2.67,2.26,5.72,2.26,8.96C91.21,41.72,82.7,50.23,72.23,50.23
	z M72.23,12.27c6.15,0,11.62,2.96,15.09,7.51c-3,1.95-7.34,4.57-13.73,5.9C67.34,27,62.6,26.36,59.14,25.89
	c-1.92-0.26-3.62-0.49-5.04-0.26C56.5,17.9,63.72,12.27,72.23,12.27z M8.79,24.01h42.7c-0.58,1.65-0.97,3.39-1.13,5.19
	c-0.22,0.82-0.3,1.75-0.25,2.78c-1.16,0.47-1.99,1.6-1.99,2.93c0,0.4,0.09,0.78,0.23,1.14l-7.07,7.07
	c-0.42-0.21-0.88-0.33-1.38-0.33c-0.64,0-1.23,0.19-1.72,0.52l-4.76-4.76c-0.59-0.59-1.54-0.59-2.12,0l-9.68,9.68
	c-0.47-0.29-1.02-0.46-1.62-0.46c-1.74,0-3.16,1.42-3.16,3.16s1.42,3.16,3.16,3.16c1.74,0,3.16-1.41,3.16-3.15l9.2-9.2l4.41,4.41
	c0.1,1.65,1.46,2.97,3.14,2.97c1.74,0,3.16-1.42,3.16-3.16c0-0.11-0.02-0.22-0.03-0.33L50.63,38c0.2,0.04,0.41,0.07,0.63,0.07
	c0.03,0,0.05-0.01,0.08-0.01c0.88,2.68,2.25,5.14,4.02,7.26c0.03,0.04,0.06,0.09,0.09,0.12c0.01,0.01,0.02,0.01,0.03,0.02
	c0.07,0.08,0.13,0.15,0.2,0.23v7.21c-2.88,1.81-4.89,4.87-5.28,8.46l-6.03,3.02c-0.3,0.15-0.65,0.1-0.89-0.11l-4.38-3.97h8.94
	c0.83,0,1.5-0.67,1.5-1.5s-0.67-1.5-1.5-1.5H35.85l-7.37-5.62c-0.75-0.57-1.75-0.76-2.67-0.49c-0.9,0.26-1.63,0.94-1.95,1.84
	c-0.1,0.3-0.15,0.62-0.15,0.93c0,1,0.51,1.91,1.38,2.45l0.22,0.13l-0.2,0.76H14.93V28.86c0-0.83-0.67-1.5-1.5-1.5s-1.5,0.67-1.5,1.5
	V58.8c0,0.83,0.67,1.5,1.5,1.5h10.89l-0.03,0.1c-0.5,1.93,0.35,3.91,2.1,4.93l1.59,0.93l1.1,0.92H8.79V24.01z M39.89,45.79
	c0.09,0,0.16,0.07,0.16,0.16c0,0.17-0.31,0.17-0.31,0C39.73,45.86,39.8,45.79,39.89,45.79z M20.14,50.92c0,0.17-0.31,0.17-0.31,0
	c0-0.09,0.07-0.16,0.16-0.16S20.14,50.83,20.14,50.92z"/>
</svg>
