<?xml version="1.0" encoding="utf-8"?>
<!-- Generator: Adobe Illustrator 19.1.1, SVG Export Plug-In . SVG Version: 6.00 Build 0)  -->
<svg version="1.1" id="Layer_1" xmlns="http://www.w3.org/2000/svg" xmlns:xlink="http://www.w3.org/1999/xlink" x="0px" y="0px"
	 viewBox="0 0 64 64" style="enable-background:new 0 0 64 64;" xml:space="preserve">
<style type="text/css">
	.st0{display:none;}
	.st1{display:inline;}
	.st2{fill:none;stroke:#B3B3B3;stroke-width:0.1;stroke-miterlimit:10;}
</style>
<g id="Layer_1_1_" class="st0">
	<g class="st1">
		<rect x="2" y="2" class="st2" width="60" height="60"/>
		<line class="st2" x1="32" y1="2" x2="32" y2="62"/>
		<line class="st2" x1="62" y1="32" x2="2" y2="32"/>
		<line class="st2" x1="2" y1="2" x2="62" y2="62"/>
		<rect x="10" y="10" class="st2" width="44" height="44"/>
		<line class="st2" x1="62" y1="2" x2="2" y2="62"/>
		<line class="st2" x1="2" y1="32" x2="32" y2="2"/>
		<line class="st2" x1="32" y1="2" x2="62" y2="32"/>
		<line class="st2" x1="62" y1="32" x2="32" y2="62"/>
		<line class="st2" x1="32" y1="62" x2="2" y2="32"/>
		<circle class="st2" cx="32" cy="32" r="21"/>
	</g>
</g>
<path d="M63.9,44c-0.5-8.6-7.4-15.4-15.9-15.9V28V2H22v9.6L2,18.3V62h45c9.1,0,16.4-7.1,16.9-16H64L63.9,44L63.9,44z M56,44
	c-0.1-2.5-0.4-5-1-7.3c1.2-0.4,2.3-0.8,3.5-1.4c2,2.4,3.2,5.4,3.4,8.6H56z M35.5,54.7c-2-2.4-3.3-5.4-3.5-8.7h6c0.1,2.5,0.4,5,1,7.3
	C37.9,53.7,36.7,54.1,35.5,54.7z M39.6,55.2c0.5,1.4,1.2,2.7,2,3.7c-1.7-0.7-3.2-1.6-4.6-2.8C37.9,55.8,38.8,55.5,39.6,55.2z
	 M52.5,35.3c-3.6,0.8-7.3,0.8-10.9,0c1.2-3.1,3-5.3,5.5-5.3C49.5,30,51.3,32.2,52.5,35.3z M52.4,31c1.7,0.7,3.2,1.6,4.6,2.8
	c-0.9,0.4-1.7,0.7-2.6,1C53.9,33.4,53.2,32.1,52.4,31z M40.1,33.6c-0.2,0.4-0.3,0.8-0.5,1.2c-0.9-0.3-1.7-0.6-2.6-1
	c1.3-1.2,2.8-2.1,4.5-2.8C41,31.8,40.5,32.6,40.1,33.6z M35.5,35.3c1.2,0.5,2.3,1,3.5,1.4c-0.6,2.2-0.9,4.7-1,7.3h-6
	C32.3,40.7,33.5,37.7,35.5,35.3z M40,46h14c-0.1,2.4-0.4,4.7-0.9,6.7c-4-1-8.1-1-12.1,0C40.4,50.7,40.1,48.4,40,46z M40,44
	c0.1-2.4,0.4-4.7,0.9-6.7c2,0.5,4,0.7,6.1,0.7c2,0,4.1-0.2,6.1-0.7c0.5,2.1,0.8,4.4,0.9,6.7H40z M46,26H34v-4h12V26z M46,14H34v-4
	h12V14z M4,26h12v4H4V26z M4,38h12v4H4V38z M4,50h12v4H4V50z M26,60H4v-4h14v-8H4v-4h14v-8H4v-4h14v-8H4v-4.3l22-7.3V60z M28,60V9.6
	l-4,1.3V4h22v4H32v8h14v4H32v8h14v0.1c-8.9,0.5-16,7.9-16,16.9c0,6.5,3.6,12.1,9,15H28z M41.5,54.7c3.6-0.9,7.3-0.9,10.9,0
	c-0.1,0.3-0.2,0.6-0.4,0.9c-0.9,2-2.5,4.4-5.1,4.4C44.5,60,42.7,57.8,41.5,54.7z M54.4,55.2c0.9,0.3,1.7,0.6,2.6,1
	c-1.3,1.2-2.9,2.2-4.6,2.8C53.2,57.9,53.9,56.6,54.4,55.2z M58.5,54.6c-1.2-0.5-2.3-1-3.5-1.4c0.6-2.3,0.9-4.8,1-7.3h6
	C61.7,49.3,60.5,52.3,58.5,54.6z"/>
</svg>
