<?xml version="1.0" encoding="utf-8"?>
<!-- Generator: Adobe Illustrator 23.0.3, SVG Export Plug-In . SVG Version: 6.00 Build 0)  -->
<svg version="1.1" id="Layer_1" xmlns="http://www.w3.org/2000/svg" xmlns:xlink="http://www.w3.org/1999/xlink" x="0px" y="0px"
	 viewBox="0 0 100 100" enable-background="new 0 0 100 100" xml:space="preserve">
<path d="M95.33,32.82c0-12.4-10.72-22.49-23.91-22.49c-12.39,0-22.61,8.92-23.79,20.29c-0.49,1.65-0.4,3.74,0.27,6.23
	c0.01,0.04,0.02,0.09,0.03,0.13l0,0c0,0.01,0.01,0.03,0.01,0.04c0.77,3.82,2.56,7.3,5.11,10.17c0.04,0.05,0.07,0.1,0.11,0.14
	c0.01,0.01,0.03,0.02,0.05,0.03c2.24,2.47,5.03,4.48,8.19,5.87h-1.36c-6.77,0-12.24,5-12.45,11.38c0,0.02,0,0.03,0,0.05c0,0,0,0,0,0
	v7.53c0,0.04-0.01,0.08-0.01,0.13v22.01c0,0.83,0.67,1.5,1.5,1.5h44.75c0.41,0,0.8-0.17,1.08-0.46c0.28-0.29,0.43-0.69,0.42-1.1
	l-0.27-6.2V65c0-6.49-5.59-11.77-12.46-11.77h-1.16C89.63,49.66,95.33,41.86,95.33,32.82z M92.06,75.86h-9.27
	c-0.93,0-1.5-0.48-1.5-0.69c0-0.15,0.14-0.34,0.37-0.51c0.37-0.27,0.92-0.43,1.48-0.43h2.21c0.02,0,0.03,0.01,0.04,0.01
	c0.04,0,0.09,0,0.13-0.01c0,0,0.01,0,0.01,0h6.52L92.06,75.86z M83.14,71.23c-1.21,0-2.37,0.36-3.26,1.01
	c-1.01,0.74-1.59,1.81-1.59,2.93c0,2.05,1.95,3.66,4.44,3.69c-2.05,4.03-6.47,6.71-11.41,6.71c-5.2,0-9.84-3.02-11.73-7.4h1.19
	c2.52,0,4.5-1.62,4.5-3.68c0-1.11-0.58-2.18-1.61-2.94c-0.87-0.64-2.05-1-3.24-1h-1.21c1.53-4.91,6.43-8.44,12.1-8.44
	c5.92,0,11,3.89,12.29,9.11H83.14z M60.44,73.55c0.56,0,1.11,0.16,1.47,0.42c0.26,0.19,0.38,0.4,0.38,0.52
	c0,0.21-0.57,0.68-1.5,0.68h-3.29c0,0-0.01,0-0.01,0h-6.9v-1.21c0-0.04,0.01-0.08,0.01-0.13v-0.29H60.44z M50.59,92.82V78.17h5.81
	c2,6.09,8.08,10.4,14.94,10.4c6.6,0,12.47-3.94,14.68-9.71h6.06l0,9.26l0.2,4.7H50.59z M92.06,65l0,6.23H86.7
	c-1.32-6.9-7.8-12.11-15.38-12.11c-7.32,0-13.63,4.83-15.22,11.44H50.6v-5.89c0,0,0,0,0,0c0.19-4.73,4.33-8.43,9.45-8.43H82.6
	C87.82,56.24,92.06,60.17,92.06,65z M71.43,13.33c6.79,0,12.81,3.04,16.63,7.73c-3.29,2.01-8.07,4.71-15.1,6.09
	c-6.87,1.35-12.08,0.69-15.88,0.21c-2.23-0.28-4.1-0.52-5.64-0.24C54.06,19.15,62.03,13.33,71.43,13.33z M71.43,52.31
	c-6.45,0-12.22-2.74-16.06-7.03c-2.07-2.91-3.66-6.05-4.48-8.89c-0.23-1.16-0.37-2.35-0.37-3.57c0-0.55,0.04-1.09,0.09-1.63
	c0.08-0.21,0.18-0.4,0.3-0.55c0.73-0.9,2.49-0.72,5.79-0.3c4,0.51,9.48,1.2,16.83-0.25c7.67-1.5,12.77-4.44,16.26-6.57
	c1.62,2.77,2.54,5.94,2.54,9.3C92.33,43.57,82.95,52.31,71.43,52.31z"/>
<path d="M75.35,71.59c0-1.6-1.05-2.96-2.52-3.49v-1.26c0-0.83-0.67-1.5-1.5-1.5s-1.5,0.67-1.5,1.5v1.35
	c-1.34,0.59-2.28,1.89-2.28,3.4c0,1.26,0.66,2.38,1.66,3.06c-0.13-0.03-0.26-0.06-0.39-0.06c-0.83,0-1.5,0.67-1.5,1.5
	c0,1.6,1.05,2.96,2.52,3.5v1.26c0,0.83,0.67,1.5,1.5,1.5s1.5-0.67,1.5-1.5v-1.35c1.34-0.59,2.28-1.89,2.28-3.4
	c0-1.26-0.66-2.38-1.66-3.06c0.13,0.03,0.26,0.06,0.39,0.06C74.67,73.09,75.35,72.42,75.35,71.59z M69.82,74.99
	C69.82,74.99,69.83,74.99,69.82,74.99L69.82,74.99C69.83,75,69.82,74.99,69.82,74.99z M72.83,72.69L72.83,72.69
	C72.83,72.69,72.83,72.69,72.83,72.69C72.83,72.69,72.83,72.69,72.83,72.69z"/>
<path d="M18.05,85.17c0.19,2.54,2.41,4.5,5.04,4.5c0.11,0,0.23,0,0.34-0.01l14.65-0.94c1.37-0.09,2.67-0.72,3.55-1.73
	c0.84-0.96,1.25-2.18,1.16-3.43c-0.17-2.35-2.1-4.2-4.47-4.46c0.05-0.05,0.1-0.08,0.14-0.13c0.84-0.96,1.25-2.18,1.16-3.43
	c-0.17-2.35-2.1-4.19-4.47-4.45c0.05-0.05,0.1-0.09,0.15-0.14c0.84-0.96,1.25-2.18,1.16-3.43c-0.16-2.18-1.84-3.91-3.97-4.36
	c0.09-0.09,0.2-0.17,0.29-0.27c0.84-0.96,1.25-2.18,1.16-3.43c-0.19-2.65-2.62-4.66-5.38-4.49L13.9,55.91
	c-1.37,0.09-2.67,0.72-3.55,1.73c-0.84,0.96-1.25,2.18-1.16,3.43c0.16,2.18,1.83,3.92,3.96,4.37c-0.09,0.09-0.19,0.16-0.28,0.26
	c-0.84,0.96-1.25,2.18-1.16,3.43c0.17,2.36,2.11,4.19,4.48,4.44c-0.05,0.05-0.11,0.09-0.16,0.15c-0.84,0.96-1.25,2.18-1.16,3.43
	c0.17,2.36,2.11,4.19,4.48,4.44c-0.05,0.05-0.11,0.09-0.16,0.15C18.37,82.7,17.96,83.92,18.05,85.17z M39.79,83.78
	c0.03,0.45-0.12,0.89-0.43,1.24c-0.36,0.41-0.9,0.67-1.48,0.71l-14.65,0.94c-1.17,0.07-2.13-0.69-2.2-1.71
	c-0.03-0.45,0.12-0.89,0.43-1.24c0.36-0.41,0.9-0.67,1.48-0.71l14.65-0.94c0.05,0,0.1,0,0.15,0C38.82,82.06,39.72,82.81,39.79,83.78
	z M12.18,60.85c-0.03-0.45,0.12-0.89,0.43-1.24c0.36-0.41,0.9-0.67,1.48-0.71l14.65-0.94c0.05,0,0.1,0,0.15,0
	c1.07,0,1.98,0.74,2.05,1.71c0.03,0.45-0.12,0.89-0.43,1.24c-0.36,0.41-0.9,0.67-1.48,0.71l-14.65,0.94
	C13.21,62.64,12.25,61.87,12.18,60.85z M14.71,68.91c-0.03-0.45,0.12-0.89,0.43-1.24c0.36-0.41,0.9-0.67,1.48-0.71l14.65-0.94
	c0.05,0,0.1,0,0.15,0c1.07,0,1.98,0.74,2.05,1.71c0.03,0.45-0.12,0.89-0.43,1.24c-0.36,0.41-0.9,0.67-1.48,0.71l-14.65,0.94
	C15.76,70.69,14.78,69.93,14.71,68.91z M17.87,76.93c-0.03-0.45,0.12-0.89,0.43-1.24c0.36-0.41,0.9-0.67,1.48-0.71l14.65-0.94
	c0.05,0,0.1,0,0.15,0c1.07,0,1.98,0.74,2.05,1.71c0.03,0.45-0.12,0.89-0.43,1.24c-0.36,0.41-0.9,0.67-1.48,0.71l-14.65,0.94
	C18.91,78.72,17.95,77.95,17.87,76.93z"/>
<path d="M8.48,52.38c0.08,0,0.16,0.01,0.24,0.01c1.21,0,2.37-0.52,3.14-1.42l4.52-5.27l3.55,4.18c0.72,0.84,1.78,1.36,2.97,1.43
	c1.14,0.04,2.27-0.37,3.09-1.15l11.75-11.38c0.01-0.01,0.02-0.02,0.03-0.04l3.58,2.22c0.24,0.15,0.52,0.23,0.79,0.23
	c0.24,0,0.47-0.06,0.69-0.17c0.47-0.24,0.78-0.71,0.81-1.24l1.03-15.64c0.03-0.53-0.21-1.04-0.65-1.34c-0.44-0.3-1-0.34-1.48-0.12
	l-14.97,6.99c-0.5,0.23-0.83,0.72-0.86,1.27c-0.03,0.55,0.24,1.07,0.71,1.36l3.37,2.09l-7.39,7.15l-3.83-4.5
	c-0.77-0.91-1.91-1.44-3.12-1.44c-0.01,0-0.01,0-0.02,0c-1.21,0.02-2.38,0.51-3.16,1.42L5.66,45.9c-1.33,1.54-1.32,3.76,0,5.16
	C6.39,51.85,7.39,52.32,8.48,52.38z M41.51,26.49l-0.7,10.62l-9.47-5.87L41.51,26.49z M7.93,47.86L15.55,39
	c0.2-0.24,0.5-0.37,0.85-0.37c0,0,0.01,0,0.02,0c0.36-0.01,0.66,0.13,0.86,0.37l4.87,5.73c0.32,0.33,0.76,0.52,1.21,0.5
	c0.37-0.01,0.76-0.18,1.04-0.45v0l9.02-8.73l1.74,1.08L23.92,48c-0.23,0.22-0.54,0.34-0.88,0.32c-0.32-0.02-0.62-0.16-0.81-0.38
	l-4.61-5.43c-0.24-0.3-0.58-0.5-0.96-0.56c-0.43-0.07-0.94,0.08-1.28,0.35c-0.07,0.06-0.13,0.12-0.19,0.18l-5.6,6.53
	c-0.22,0.25-0.56,0.39-0.94,0.37c-0.32-0.02-0.58-0.14-0.8-0.37C7.54,48.68,7.66,48.17,7.93,47.86z"/>
</svg>
