<?xml version="1.0" encoding="utf-8"?>
<!-- Generator: Adobe Illustrator 23.0.3, SVG Export Plug-In . SVG Version: 6.00 Build 0)  -->
<svg version="1.1" id="Layer_1" xmlns="http://www.w3.org/2000/svg" xmlns:xlink="http://www.w3.org/1999/xlink" x="0px" y="0px"
	 viewBox="0 0 100 100" enable-background="new 0 0 100 100" xml:space="preserve">
<path d="M38.62,16.4c0.01,0.03,0.01,0.05,0.02,0.08c0,0,0,0.01,0,0.01l0,0c0,0,0,0,0,0c0.37,1.68,1.21,3.21,2.39,4.48
	c0.04,0.05,0.08,0.1,0.13,0.14c0.01,0.01,0.03,0.01,0.04,0.02c0.34,0.35,0.71,0.68,1.11,0.99c-2.22,0.6-3.85,2.47-3.85,4.7v10.8
	c0,0.83,0.67,1.5,1.5,1.5h18.99c0.83,0,1.5-0.67,1.5-1.5v-10.8c0-2.21-1.6-4.06-3.79-4.68c2.38-1.83,3.9-4.56,3.9-7.6
	c0-1.96-0.64-3.78-1.72-5.33c0-0.01,0-0.01-0.01-0.02c-0.02-0.03-0.04-0.05-0.05-0.07c-1.14-1.59-2.77-2.87-4.7-3.66
	C54.06,5.45,54.03,5.44,54,5.43c-1.38-0.56-2.9-0.87-4.5-0.87c-5.73,0-10.46,3.96-11.01,9C38.28,14.36,38.31,15.31,38.62,16.4z
	 M57.45,26.83v9.3H41.46v-9.3c0-1.06,1.05-1.92,2.35-1.92H55.1C56.39,24.91,57.45,25.77,57.45,26.83z M49.49,21.54
	c-2.48,0-4.7-0.98-6.19-2.51c-0.8-1.06-1.43-2.24-1.75-3.26c-0.08-0.4-0.13-0.8-0.13-1.22c0-0.08,0.01-0.16,0.01-0.24
	c0.35-0.03,1.06,0.05,1.67,0.12c1.57,0.19,3.9,0.46,6.9-0.02c0.05-0.01,0.1-0.01,0.14-0.02c0.13-0.02,0.26-0.04,0.39-0.06
	c2.9-0.54,4.95-1.5,6.45-2.33c0.36,0.79,0.57,1.65,0.57,2.55C57.56,18.4,53.94,21.54,49.49,21.54z M55.15,9.57
	c-0.49,0.26-1.04,0.52-1.65,0.77c0.26-0.48,0.49-0.96,0.7-1.46C54.54,9.09,54.86,9.32,55.15,9.57z M49.49,7.56
	c0.66,0,1.3,0.08,1.92,0.21c-0.36,0.86-0.8,1.68-1.36,2.48c-0.31,0.44-0.64,0.86-1,1.27c-2.35,0.31-4.19,0.1-5.58-0.07
	c-0.39-0.05-0.76-0.09-1.13-0.12C43.69,9.09,46.38,7.56,49.49,7.56z"/>
<path d="M11.73,59.65c2.18,0,3.96-1.65,3.96-3.68v-8.51h30.74v8.51c0,2.03,1.78,3.68,3.96,3.68s3.96-1.65,3.96-3.68v-8.51h27.89
	c0.51,0,0.96,0.32,0.96,0.68v7.83c0,2.03,1.78,3.68,3.96,3.68s3.96-1.65,3.96-3.68v-12.2c0-2.03-1.78-3.68-3.96-3.68H11.73
	c-2.07,0-3.75,1.49-3.93,3.37c-0.02,0.1-0.03,0.21-0.03,0.31v2.18v10.01C7.77,58,9.55,59.65,11.73,59.65z M11.73,43.09h75.44
	c0.57,0,0.96,0.36,0.96,0.68v12.2c0,0.32-0.39,0.68-0.96,0.68s-0.96-0.36-0.96-0.68v-7.83c0-2.03-1.78-3.68-3.96-3.68H52.86
	c-0.83,0-1.5,0.67-1.5,1.5v10.01c0,0.32-0.39,0.68-0.96,0.68s-0.96-0.36-0.96-0.68V45.96c0-0.83-0.67-1.5-1.5-1.5H14.2
	c-0.83,0-1.5,0.67-1.5,1.5v10.01c0,0.32-0.39,0.68-0.96,0.68s-0.96-0.36-0.96-0.68V45.96v-2.18C10.77,43.45,11.17,43.09,11.73,43.09
	z"/>
<path d="M21.92,93.94V83.41c0-2.13-1.4-3.93-3.32-4.57c2.09-1.8,3.42-4.45,3.42-7.41c0-1.92-0.57-3.72-1.53-5.23
	c-0.01-0.02-0.02-0.05-0.04-0.07c-0.01-0.01-0.02-0.02-0.02-0.03c-1.75-2.68-4.76-4.45-8.19-4.45c-5.07,0-9.26,3.88-9.74,8.84
	c-0.18,0.77-0.15,1.68,0.11,2.73c0.01,0.03,0.01,0.05,0.02,0.08l0,0c0,0,0,0.01,0,0.01c0.32,1.66,1.07,3.17,2.12,4.42
	c0.02,0.02,0.04,0.05,0.06,0.07c0.01,0.01,0.02,0.01,0.02,0.01c0.31,0.36,0.65,0.7,1.01,1.01c-1.95,0.62-3.38,2.43-3.38,4.58v10.54
	c0,0.83,0.67,1.5,1.5,1.5h16.45C21.25,95.44,21.92,94.77,21.92,93.94z M12.23,78.21c-2.07,0-3.92-0.93-5.17-2.4
	c-0.68-1.03-1.23-2.18-1.5-3.18c-0.07-0.39-0.11-0.8-0.11-1.21c0-0.07,0.01-0.14,0.01-0.21c0.31-0.01,0.78,0.07,1.2,0.13
	c1.46,0.2,3.67,0.5,6.56-0.11c2.35-0.49,4.11-1.37,5.39-2.13c0.27,0.73,0.42,1.51,0.42,2.32C19.02,75.17,15.97,78.21,12.23,78.21z
	 M12.23,64.64c1.84,0,3.52,0.74,4.74,1.94c-1.09,0.65-2.48,1.32-4.38,1.72c-2.38,0.5-4.13,0.26-5.54,0.07
	c-0.28-0.04-0.55-0.07-0.83-0.1C7.37,66.12,9.63,64.64,12.23,64.64z M18.92,92.44H5.47v-9.04c0-1.01,0.82-1.83,1.83-1.83h9.78
	c1.01,0,1.83,0.82,1.83,1.83V92.44z"/>
<path d="M60.6,70.91c0-1.93-0.57-3.72-1.54-5.24c-0.01-0.02-0.02-0.04-0.03-0.06c-0.01-0.01-0.01-0.02-0.02-0.03
	c-1.75-2.68-4.77-4.46-8.2-4.46c-5.08,0-9.26,3.88-9.74,8.84c-0.18,0.77-0.15,1.68,0.11,2.73c0.01,0.03,0.01,0.05,0.02,0.08l0,0
	c0,0,0,0.01,0,0.01c0.32,1.66,1.07,3.17,2.12,4.42c0.02,0.02,0.04,0.05,0.06,0.08c0.01,0.01,0.02,0.01,0.02,0.01
	c0.31,0.36,0.65,0.7,1.01,1.01c-1.95,0.62-3.37,2.43-3.37,4.58v10.54c0,0.83,0.67,1.5,1.5,1.5H59c0.83,0,1.5-0.67,1.5-1.5V82.89
	c0-2.13-1.4-3.93-3.32-4.57C59.27,76.53,60.6,73.87,60.6,70.91z M50.82,64.13c1.84,0,3.52,0.74,4.74,1.94
	c-1.09,0.65-2.48,1.32-4.38,1.72c-2.38,0.5-4.13,0.26-5.54,0.07c-0.28-0.04-0.55-0.07-0.83-0.1C45.95,65.6,48.21,64.13,50.82,64.13z
	 M57.5,91.93H44.06v-9.04c0-1.01,0.82-1.83,1.83-1.83h9.78c1.01,0,1.83,0.82,1.83,1.83V91.93z M50.82,77.69
	c-2.07,0-3.92-0.93-5.17-2.4c-0.68-1.04-1.23-2.18-1.5-3.18c-0.07-0.39-0.11-0.79-0.11-1.21c0-0.07,0.01-0.14,0.01-0.21
	c0.28,0,0.79,0.07,1.2,0.13c1.46,0.2,3.68,0.5,6.56-0.11c2.35-0.49,4.11-1.37,5.39-2.13c0.27,0.73,0.42,1.51,0.42,2.32
	C57.6,74.65,54.56,77.69,50.82,77.69z"/>
<path d="M97.63,70.38c0-1.93-0.57-3.72-1.53-5.24c-0.01-0.02-0.02-0.04-0.03-0.07c-0.01-0.01-0.02-0.02-0.02-0.03
	c-1.75-2.68-4.76-4.45-8.19-4.45c-5.07,0-9.26,3.88-9.74,8.83c-0.18,0.77-0.15,1.68,0.11,2.73c0.01,0.03,0.01,0.05,0.02,0.08l0,0
	c0,0,0,0.01,0,0.01c0.32,1.66,1.07,3.17,2.12,4.42c0.02,0.02,0.04,0.05,0.06,0.07c0.01,0.01,0.02,0.01,0.02,0.01
	c0.31,0.36,0.65,0.7,1.01,1.01c-1.95,0.62-3.38,2.43-3.38,4.58V92.9c0,0.83,0.67,1.5,1.5,1.5h16.45c0.83,0,1.5-0.67,1.5-1.5V82.36
	c0-2.13-1.4-3.93-3.32-4.57C96.3,76,97.63,73.34,97.63,70.38z M87.84,63.59c1.84,0,3.52,0.74,4.74,1.94
	c-1.09,0.65-2.48,1.32-4.38,1.72c-2.38,0.5-4.13,0.26-5.54,0.07c-0.28-0.04-0.55-0.07-0.83-0.1C82.98,65.07,85.24,63.59,87.84,63.59
	z M94.53,91.4H81.08v-9.04c0-1.01,0.82-1.83,1.83-1.83h9.78c1.01,0,1.83,0.82,1.83,1.83V91.4z M87.84,77.16
	c-2.07,0-3.92-0.93-5.17-2.4c-0.68-1.03-1.23-2.18-1.5-3.18c-0.07-0.39-0.11-0.8-0.11-1.21c0-0.07,0.01-0.14,0.01-0.21
	c0.31,0.01,0.78,0.07,1.2,0.13c1.46,0.2,3.68,0.5,6.56-0.11c2.35-0.49,4.11-1.37,5.39-2.13c0.27,0.73,0.42,1.51,0.42,2.32
	C94.63,74.12,91.58,77.16,87.84,77.16z"/>
</svg>
