<?xml version="1.0" encoding="UTF-8" standalone="no"?>
<!-- Created with Inkscape (http://www.inkscape.org/) -->

<svg
   version="1.1"
   id="svg135"
   xml:space="preserve"
   width="32"
   height="32"
   viewBox="0 0 32 32"
   xmlns="http://www.w3.org/2000/svg"
   xmlns:svg="http://www.w3.org/2000/svg"><defs
     id="defs139"><clipPath
       clipPathUnits="userSpaceOnUse"
       id="clipPath149"><path
         d="M 0,24 H 24 V 0 H 0 Z"
         id="path147" /></clipPath></defs><g
     id="g141"
     transform="matrix(1.3333333,0,0,-1.3333333,0,32)"><g
       id="g143"><g
         id="g145"
         clip-path="url(#clipPath149)"><g
           id="g151"
           transform="translate(12,3)"><path
             d="M 0,0 V -2"
             style="fill:none;stroke:#000000;stroke-width:2;stroke-linecap:round;stroke-linejoin:round;stroke-miterlimit:10;stroke-dasharray:none;stroke-opacity:1"
             id="path153" /></g><g
           id="g155"
           transform="translate(19.6436,6.1348)"><path
             d="m 0,0 -2.471,2.865 h 0.158 c 1.342,0 2.134,1.507 1.373,2.613 l -3.075,3.387 h 0.869 c 1.209,0 1.92,1.323 1.235,2.293 l -4.597,5.199 c -0.597,0.678 -1.674,0.678 -2.271,0 l -4.597,-5.199 c -0.686,-0.97 0.026,-2.293 1.235,-2.293 h 0.869 l -3.075,-3.387 c -0.761,-1.106 0.031,-2.613 1.373,-2.613 h 0.158 L -15.287,0 c -0.914,-1.327 0.036,-3.135 1.647,-3.135 H -1.647 C -0.036,-3.135 0.914,-1.327 0,0 Z"
             style="fill:none;stroke:#000000;stroke-width:2;stroke-linecap:round;stroke-linejoin:round;stroke-miterlimit:10;stroke-dasharray:none;stroke-opacity:1"
             id="path157" /></g><g
           id="g159"
           transform="translate(8,15)"><path
             d="M 0,0 H 4"
             style="fill:none;stroke:#000000;stroke-width:2;stroke-linecap:round;stroke-linejoin:round;stroke-miterlimit:10;stroke-dasharray:none;stroke-opacity:1"
             id="path161" /></g><g
           id="g163"
           transform="translate(6,9)"><path
             d="M 0,0 H 7"
             style="fill:none;stroke:#000000;stroke-width:2;stroke-linecap:round;stroke-linejoin:round;stroke-miterlimit:10;stroke-dasharray:none;stroke-opacity:1"
             id="path165" /></g></g></g></g></svg>
