<?xml version="1.0" encoding="UTF-8" standalone="no"?>
<!-- Created with Inkscape (http://www.inkscape.org/) -->

<svg
   version="1.1"
   id="svg717"
   xml:space="preserve"
   width="32"
   height="32"
   viewBox="0 0 32 32"
   xmlns="http://www.w3.org/2000/svg"
   xmlns:svg="http://www.w3.org/2000/svg"><defs
     id="defs721"><clipPath
       clipPathUnits="userSpaceOnUse"
       id="clipPath731"><path
         d="M 0,24 H 24 V 0 H 0 Z"
         id="path729" /></clipPath></defs><g
     id="g723"
     transform="matrix(1.3333333,0,0,-1.3333333,0,32)"><g
       id="g725"><g
         id="g727"
         clip-path="url(#clipPath731)"><g
           id="g733"
           transform="translate(3.0386,3)"><path
             d="M 0,0 4.667,7 H 2 l 4,6 H 3.75 l 4.283,6.595 c 0.532,0.538 1.402,0.538 1.934,0 L 14.223,13 H 12 L 16,7 H 13.333 L 18,0 Z"
             style="fill:none;stroke:#000000;stroke-width:2;stroke-linecap:butt;stroke-linejoin:miter;stroke-miterlimit:10;stroke-dasharray:none;stroke-opacity:1"
             id="path735" /></g><g
           id="g737"
           transform="translate(12.0386)"><path
             d="M 0,0 V 4"
             style="fill:none;stroke:#000000;stroke-width:2;stroke-linecap:butt;stroke-linejoin:miter;stroke-miterlimit:10;stroke-dasharray:none;stroke-opacity:1"
             id="path739" /></g><g
           id="g741"
           transform="translate(9.0386,7)"><path
             d="M 0,0 C 0,-0.553 0.448,-1 1,-1 1.552,-1 2,-0.553 2,0 2,0.553 1.552,1 1,1 0.448,1 0,0.553 0,0"
             style="fill:#000000;fill-opacity:1;fill-rule:nonzero;stroke:none"
             id="path743" /></g><g
           id="g745"
           transform="translate(13.0386,6)"><path
             d="M 0,0 C 0,-0.553 0.448,-1 1,-1 1.552,-1 2,-0.553 2,0 2,0.553 1.552,1 1,1 0.448,1 0,0.553 0,0"
             style="fill:#000000;fill-opacity:1;fill-rule:nonzero;stroke:none"
             id="path747" /></g><g
           id="g749"
           transform="translate(11.0386,10)"><path
             d="M 0,0 C 0,-0.553 0.448,-1 1,-1 1.552,-1 2,-0.553 2,0 2,0.553 1.552,1 1,1 0.448,1 0,0.553 0,0"
             style="fill:#000000;fill-opacity:1;fill-rule:nonzero;stroke:none"
             id="path751" /></g><g
           id="g753"
           transform="translate(10.0386,14)"><path
             d="M 0,0 C 0,-0.553 0.448,-1 1,-1 1.552,-1 2,-0.553 2,0 2,0.553 1.552,1 1,1 0.448,1 0,0.553 0,0"
             style="fill:#000000;fill-opacity:1;fill-rule:nonzero;stroke:none"
             id="path755" /></g></g></g></g></svg>
